<?xml version="1.0" encoding="UTF-8" standalone="no"?>
<!DOCTYPE svg PUBLIC "-//W3C//DTD SVG 1.1//EN" "http://www.w3.org/Graphics/SVG/1.1/DTD/svg11.dtd">
<svg width="100%" height="100%" viewBox="0 0 1201 205" version="1.1" xmlns="http://www.w3.org/2000/svg" xmlns:xlink="http://www.w3.org/1999/xlink" xml:space="preserve" xmlns:serif="http://www.serif.com/" style="fill-rule:evenodd;clip-rule:evenodd;stroke-linejoin:round;stroke-miterlimit:2;">
    <g transform="matrix(1,0,0,1,-399.99,-897.8)">
        <path d="M570.65,1100.19L530.63,1100.19L440.01,963.27L440.01,1100.19L399.99,1100.19L399.99,900.38L440.01,900.38L530.63,1037.59L530.63,900.38L570.65,900.38L570.65,1100.19Z" style="fill:white;fill-rule:nonzero;"/>
    </g>
    <g transform="matrix(1,0,0,1,-399.99,-897.8)">
        <path d="M1052.03,900.67L1052.03,1100.2L1012.01,1100.2L1012.01,970.42L958.56,1100.2L928.26,1100.2L874.52,970.42L874.52,1100.2L834.5,1100.2L834.5,900.67L879.95,900.67L943.41,1049.03L1006.87,900.67L1052.03,900.67Z" style="fill:white;fill-rule:nonzero;"/>
    </g>
    <g transform="matrix(1,0,0,1,-399.99,-897.8)">
        <rect x="1091.47" y="900.67" width="40.02" height="199.53" style="fill:white;fill-rule:nonzero;"/>
    </g>
    <g transform="matrix(1,0,0,1,-399.99,-897.8)">
        <path d="M1341.59,1100.19L1301.57,1100.19L1210.95,963.27L1210.95,1100.19L1170.93,1100.19L1170.93,900.38L1210.95,900.38L1301.57,1037.59L1301.57,900.38L1341.59,900.38L1341.59,1100.19Z" style="fill:white;fill-rule:nonzero;"/>
    </g>
    <g transform="matrix(1,0,0,1,-399.99,-897.8)">
        <rect x="1381.04" y="900.67" width="40.02" height="199.53" style="fill:white;fill-rule:nonzero;"/>
    </g>
    <g transform="matrix(1,0,0,1,-399.99,-897.8)">
        <path d="M1491.8,1095.05C1480.65,1090.29 1471.83,1083.43 1465.36,1074.47C1458.88,1065.51 1455.54,1054.94 1455.36,1042.74L1498.24,1042.74C1498.81,1050.94 1501.72,1057.42 1506.96,1062.18C1512.2,1066.95 1519.39,1069.33 1528.54,1069.33C1537.69,1069.33 1545.21,1067.09 1550.55,1062.61C1555.88,1058.13 1558.55,1052.27 1558.55,1045.03C1558.55,1039.13 1556.74,1034.27 1553.12,1030.45C1549.5,1026.64 1544.97,1023.64 1539.54,1021.45C1534.11,1019.26 1526.63,1016.83 1517.1,1014.16C1504.14,1010.35 1493.61,1006.58 1485.51,1002.87C1477.41,999.15 1470.45,993.54 1464.64,986C1458.82,978.47 1455.92,968.42 1455.92,955.84C1455.92,944.03 1458.87,933.74 1464.78,924.97C1470.68,916.21 1478.97,909.49 1489.65,904.82C1500.32,900.15 1512.52,897.82 1526.24,897.82C1546.82,897.82 1563.54,902.82 1576.41,912.83C1589.27,922.83 1596.37,936.8 1597.71,954.71L1553.69,954.71C1553.31,947.85 1550.4,942.18 1544.97,937.7C1539.54,933.22 1532.34,930.98 1523.39,930.98C1515.57,930.98 1509.33,932.98 1504.67,936.98C1500,940.98 1497.67,946.8 1497.67,954.42C1497.67,959.76 1499.43,964.19 1502.96,967.71C1506.48,971.24 1510.87,974.1 1516.11,976.29C1521.35,978.48 1528.73,981.01 1538.26,983.87C1551.22,987.68 1561.79,991.49 1569.99,995.3C1578.18,999.11 1585.23,1004.83 1591.14,1012.45C1597.04,1020.07 1600,1030.08 1600,1042.46C1600,1053.13 1597.24,1063.04 1591.71,1072.19C1586.18,1081.34 1578.08,1088.63 1567.41,1094.06C1556.74,1099.49 1544.06,1102.21 1529.39,1102.21C1515.48,1102.21 1502.95,1099.83 1491.8,1095.06L1491.8,1095.05Z" style="fill:white;fill-rule:nonzero;"/>
    </g>
    <g transform="matrix(1,0,0,1,-399.99,-897.8)">
        <path d="M653.84,1036.74C646.12,1026.52 641.54,1013.8 641.54,1000C641.54,966.29 668.86,938.97 702.57,938.97C736.28,938.97 763.6,966.29 763.6,1000C763.6,1013.8 759.02,1026.52 751.3,1036.74L798.59,1036.74C802.7,1025.38 804.76,1013.09 804.76,999.86C804.76,980.42 800.24,962.94 791.18,947.41C782.13,931.88 769.84,919.73 754.31,910.96C738.78,902.19 721.58,897.8 702.71,897.8C683.84,897.8 666.89,902.19 651.26,910.96C635.64,919.73 623.26,931.88 614.11,947.41C604.96,962.94 600.38,980.42 600.38,999.86C600.38,1013.08 602.47,1025.37 606.62,1036.74L653.84,1036.74Z" style="fill:rgb(55,155,255);fill-rule:nonzero;"/>
    </g>
    <g transform="matrix(1,0,0,1,-399.99,-897.8)">
        <path d="M651.75,1089.32L753.67,1089.32C738.18,1097.91 721.2,1102.2 702.71,1102.2C684.22,1102.2 667.25,1097.91 651.75,1089.32Z" style="fill:rgb(55,155,255);fill-rule:nonzero;"/>
    </g>
    <g transform="matrix(1,0,0,1,-399.99,-897.8)">
        <path d="M781.42,1066.46C777.49,1071.16 773.17,1075.46 768.43,1079.34L636.98,1079.34C632.24,1075.46 627.89,1071.16 623.94,1066.46L781.42,1066.46Z" style="fill:rgb(55,155,255);fill-rule:nonzero;"/>
    </g>
</svg>
