<?xml version="1.0" encoding="UTF-8"?>
<svg id="Layer_1" data-name="Layer 1" xmlns="http://www.w3.org/2000/svg" viewBox="0 0 512 512">
  <defs>
    <style>
      .cls-1 {
        fill: #fff;
      }

      .cls-2 {
        fill: #379bff;
      }
    </style>
  </defs>
  <rect class="cls-1" x="0" y="0" width="512" height="512" rx="150" ry="150"/>
  <g>
    <path class="cls-2" d="m179.01,314.04c-12.19-16.15-19.43-36.25-19.43-58.05,0-53.25,43.17-96.43,96.43-96.43s96.43,43.17,96.43,96.43c0,21.8-7.24,41.9-19.43,58.05h74.72c6.49-17.95,9.75-37.37,9.75-58.27,0-30.71-7.15-58.33-21.46-82.87-14.29-24.54-33.72-43.73-58.26-57.59-24.54-13.85-51.71-20.79-81.53-20.79s-56.59,6.94-81.29,20.79c-24.68,13.85-44.24,33.05-58.7,57.59-14.45,24.54-21.69,52.15-21.69,82.87,0,20.89,3.3,40.31,9.86,58.27h74.61Z"/>
    <path class="cls-2" d="m175.7,397.12h161.03c-24.47,13.57-51.3,20.35-80.52,20.35s-56.03-6.78-80.52-20.35Z"/>
    <path class="cls-2" d="m380.58,361c-6.21,7.43-13.03,14.22-20.52,20.35h-207.69c-7.49-6.13-14.36-12.92-20.6-20.35h248.82Z"/>
  </g>
</svg>