<?xml version="1.0" encoding="UTF-8" standalone="no"?>
<!DOCTYPE svg PUBLIC "-//W3C//DTD SVG 1.1//EN" "http://www.w3.org/Graphics/SVG/1.1/DTD/svg11.dtd">
<svg width="100%" height="100%" viewBox="0 0 205 205" version="1.1" xmlns="http://www.w3.org/2000/svg" xmlns:xlink="http://www.w3.org/1999/xlink" xml:space="preserve" xmlns:serif="http://www.serif.com/" style="fill-rule:evenodd;clip-rule:evenodd;stroke-linejoin:round;stroke-miterlimit:2;">
    <g transform="matrix(1,0,0,1,-600.38,-897.8)">
        <path d="M653.84,1036.74C646.12,1026.52 641.54,1013.8 641.54,1000C641.54,966.29 668.86,938.97 702.57,938.97C736.28,938.97 763.6,966.29 763.6,1000C763.6,1013.8 759.02,1026.52 751.3,1036.74L798.59,1036.74C802.7,1025.38 804.76,1013.09 804.76,999.86C804.76,980.42 800.24,962.94 791.18,947.41C782.13,931.88 769.84,919.73 754.31,910.96C738.78,902.19 721.58,897.8 702.71,897.8C683.84,897.8 666.89,902.19 651.26,910.96C635.64,919.73 623.26,931.88 614.11,947.41C604.96,962.94 600.38,980.42 600.38,999.86C600.38,1013.08 602.47,1025.37 606.62,1036.74L653.84,1036.74Z" style="fill:rgb(55,155,255);fill-rule:nonzero;"/>
    </g>
    <g transform="matrix(1,0,0,1,-600.38,-897.8)">
        <path d="M651.75,1089.32L753.67,1089.32C738.18,1097.91 721.2,1102.2 702.71,1102.2C684.22,1102.2 667.25,1097.91 651.75,1089.32Z" style="fill:rgb(55,155,255);fill-rule:nonzero;"/>
    </g>
    <g transform="matrix(1,0,0,1,-600.38,-897.8)">
        <path d="M781.42,1066.46C777.49,1071.16 773.17,1075.46 768.43,1079.34L636.98,1079.34C632.24,1075.46 627.89,1071.16 623.94,1066.46L781.42,1066.46Z" style="fill:rgb(55,155,255);fill-rule:nonzero;"/>
    </g>
</svg>
